REM DIRINDEX 1\2,1\3,1\4,1\5
REM DIRNAME "folder01","folder02","folder03","folder04","folder05"
TITLE ""
FILE "1Q_j_2221-2234.mp3" MP3
  TRACK 01 AUDIO
    TITLE "0:"
    INDEX 01 00:00:00
  TRACK 02 AUDIO
    TITLE "3:cjc172_0364"
    INDEX 01 00:00:10
  TRACK 03 AUDIO
    TITLE "0:"
    INDEX 01 00:01:12
  TRACK 04 AUDIO
    TITLE "4:cjc172_0365"
    INDEX 01 00:01:33
  TRACK 05 AUDIO
    TITLE "0:"
    INDEX 01 00:03:73
  TRACK 06 AUDIO
    TITLE "5:cjc172_0366"
    INDEX 01 00:04:04
  TRACK 07 AUDIO
    TITLE "0:"
    INDEX 01 00:09:17
  TRACK 08 AUDIO
    TITLE "3:cjc172_0367"
    INDEX 01 00:09:64
  TRACK 09 AUDIO
    TITLE "0:"
    INDEX 01 00:11:12
  TRACK 10 AUDIO
    TITLE "4:cjc172_0368"
    INDEX 01 00:11:20
  TRACK 11 AUDIO
    TITLE "0:"
    INDEX 01 00:13:07
  TRACK 12 AUDIO
    TITLE "5:cjc172_0369"
    INDEX 01 00:13:13
  TRACK 13 AUDIO
    TITLE "0:"
    INDEX 01 00:18:24
  TRACK 14 AUDIO
    TITLE "3:cjc172_0370"
    INDEX 01 00:18:71
  TRACK 15 AUDIO
    TITLE "0:"
    INDEX 01 00:21:28
  TRACK 16 AUDIO
    TITLE "4:cjc172_0371"
    INDEX 01 00:21:42
  TRACK 17 AUDIO
    TITLE "0:"
    INDEX 01 00:23:31
  TRACK 18 AUDIO
    TITLE "5:cjc172_0372"
    INDEX 01 00:23:39
  TRACK 19 AUDIO
    TITLE "0:"
    INDEX 01 00:30:51
  TRACK 20 AUDIO
    TITLE "3:cjc172_0373"
    INDEX 01 00:31:23
  TRACK 21 AUDIO
    TITLE "0:"
    INDEX 01 00:32:53
  TRACK 22 AUDIO
    TITLE "4:cjc172_0374"
    INDEX 01 00:32:61
  TRACK 23 AUDIO
    TITLE "0:"
    INDEX 01 00:35:20
  TRACK 24 AUDIO
    TITLE "5:cjc172_0375"
    INDEX 01 00:35:28
  TRACK 25 AUDIO
    TITLE "0:"
    INDEX 01 00:39:18
  TRACK 26 AUDIO
    TITLE "3:cjc172_0376"
    INDEX 01 00:39:67
  TRACK 27 AUDIO
    TITLE "0:"
    INDEX 01 00:41:54
  TRACK 28 AUDIO
    TITLE "4:cjc172_0377"
    INDEX 01 00:41:68
  TRACK 29 AUDIO
    TITLE "0:"
    INDEX 01 00:44:10
  TRACK 30 AUDIO
    TITLE "5:cjc172_0378"
    INDEX 01 00:44:15
  TRACK 31 AUDIO
    TITLE "0:"
    INDEX 01 00:48:45
  TRACK 32 AUDIO
    TITLE "3:cjc172_0379"
    INDEX 01 00:49:17
  TRACK 33 AUDIO
    TITLE "0:"
    INDEX 01 00:50:18
  TRACK 34 AUDIO
    TITLE "4:cjc172_0380"
    INDEX 01 00:50:38
  TRACK 35 AUDIO
    TITLE "0:"
    INDEX 01 00:51:45
  TRACK 36 AUDIO
    TITLE "5:cjc172_0381"
    INDEX 01 00:51:53
  TRACK 37 AUDIO
    TITLE "0:"
    INDEX 01 00:55:54
  TRACK 38 AUDIO
    TITLE "3:cjc172_0382"
    INDEX 01 00:56:26
  TRACK 39 AUDIO
    TITLE "0:"
    INDEX 01 00:57:59
  TRACK 40 AUDIO
    TITLE "4:cjc172_0383"
    INDEX 01 00:57:67
  TRACK 41 AUDIO
    TITLE "0:"
    INDEX 01 00:59:42
  TRACK 42 AUDIO
    TITLE "5:cjc172_0384"
    INDEX 01 00:59:50
  TRACK 43 AUDIO
    TITLE "0:"
    INDEX 01 01:03:27
  TRACK 44 AUDIO
    TITLE "3:cjc172_0385"
    INDEX 01 01:04:01
  TRACK 45 AUDIO
    TITLE "0:"
    INDEX 01 01:05:23
  TRACK 46 AUDIO
    TITLE "4:cjc172_0386"
    INDEX 01 01:05:31
  TRACK 47 AUDIO
    TITLE "0:"
    INDEX 01 01:06:62
  TRACK 48 AUDIO
    TITLE "5:cjc172_0387"
    INDEX 01 01:06:68
  TRACK 49 AUDIO
    TITLE "0:"
    INDEX 01 01:11:53
  TRACK 50 AUDIO
    TITLE "3:cjc172_0388"
    INDEX 01 01:12:24
  TRACK 51 AUDIO
    TITLE "0:"
    INDEX 01 01:14:73
  TRACK 52 AUDIO
    TITLE "4:cjc172_0389"
    INDEX 01 01:15:06
  TRACK 53 AUDIO
    TITLE "0:"
    INDEX 01 01:16:45
  TRACK 54 AUDIO
    TITLE "5:cjc172_0390"
    INDEX 01 01:16:53
  TRACK 55 AUDIO
    TITLE "0:"
    INDEX 01 01:21:66
  TRACK 56 AUDIO
    TITLE "3:cjc172_0391"
    INDEX 01 01:22:36
  TRACK 57 AUDIO
    TITLE "0:"
    INDEX 01 01:24:05
  TRACK 58 AUDIO
    TITLE "4:cjc172_0392"
    INDEX 01 01:24:13
  TRACK 59 AUDIO
    TITLE "0:"
    INDEX 01 01:26:02
  TRACK 60 AUDIO
    TITLE "5:cjc172_0393"
    INDEX 01 01:26:10
  TRACK 61 AUDIO
    TITLE "0:"
    INDEX 01 01:33:04
  TRACK 62 AUDIO
    TITLE "3:cjc172_0394"
    INDEX 01 01:33:51
  TRACK 63 AUDIO
    TITLE "0:"
    INDEX 01 01:34:72
  TRACK 64 AUDIO
    TITLE "4:cjc172_0395"
    INDEX 01 01:35:05
  TRACK 65 AUDIO
    TITLE "0:"
    INDEX 01 01:37:04
  TRACK 66 AUDIO
    TITLE "5:cjc172_0396"
    INDEX 01 01:37:12
  TRACK 67 AUDIO
    TITLE "0:"
    INDEX 01 01:43:06
  TRACK 68 AUDIO
    TITLE "3:cjc172_0397"
    INDEX 01 01:43:52
  TRACK 69 AUDIO
    TITLE "0:"
    INDEX 01 01:45:11
  TRACK 70 AUDIO
    TITLE "4:cjc172_0398"
    INDEX 01 01:45:19
  TRACK 71 AUDIO
    TITLE "0:"
    INDEX 01 01:47:59
  TRACK 72 AUDIO
    TITLE "5:cjc172_0399"
    INDEX 01 01:47:65
  TRACK 73 AUDIO
    TITLE "0:"
    INDEX 01 01:53:32
  TRACK 74 AUDIO
    TITLE "3:cjc172_0400"
    INDEX 01 01:54:02
  TRACK 75 AUDIO
    TITLE "0:"
    INDEX 01 01:55:21
  TRACK 76 AUDIO
    TITLE "4:cjc172_0401"
    INDEX 01 01:55:31
  TRACK 77 AUDIO
    TITLE "0:"
    INDEX 01 01:56:54
  TRACK 78 AUDIO
    TITLE "5:cjc172_0402"
    INDEX 01 01:56:62
  TRACK 79 AUDIO
    TITLE "0:"
    INDEX 01 02:04:30
  TRACK 80 AUDIO
    TITLE "3:cjc172_0403"
    INDEX 01 02:05:02
  TRACK 81 AUDIO
    TITLE "0:"
    INDEX 01 02:05:73
  TRACK 82 AUDIO
    TITLE "4:cjc172_0404"
    INDEX 01 02:06:15
  TRACK 83 AUDIO
    TITLE "0:"
    INDEX 01 02:08:63
  TRACK 84 AUDIO
    TITLE "5:cjc172_0405"
    INDEX 01 02:08:69
  TRACK 85 AUDIO
    TITLE "0:"
    INDEX 01 02:14:27
